<mxfile host="app.diagrams.net" modified="2024-04-27T14:35:51.467Z" agent="Mozilla/5.0 (Windows NT 10.0; Win64; x64) AppleWebKit/537.36 (KHTML, like Gecko) Chrome/124.0.0.0 Safari/537.36" etag="Rbe7J_2_vMPftmtkJi_A" version="24.3.1" type="github">
  <diagram id="C5RBs43oDa-KdzZeNtuy" name="Page-1">
    <mxGraphModel dx="880" dy="434" grid="1" gridSize="10" guides="1" tooltips="1" connect="1" arrows="1" fold="1" page="1" pageScale="1" pageWidth="827" pageHeight="1169" math="0" shadow="0">
      <root>
        <mxCell id="WIyWlLk6GJQsqaUBKTNV-0" />
        <mxCell id="WIyWlLk6GJQsqaUBKTNV-1" parent="WIyWlLk6GJQsqaUBKTNV-0" />
        <mxCell id="zkfFHV4jXpPFQw0GAbJ--0" value="(Abstract)BaseEntity" style="swimlane;fontStyle=2;align=center;verticalAlign=top;childLayout=stackLayout;horizontal=1;startSize=26;horizontalStack=0;resizeParent=1;resizeLast=0;collapsible=1;marginBottom=0;rounded=0;shadow=0;strokeWidth=1;" parent="WIyWlLk6GJQsqaUBKTNV-1" vertex="1">
          <mxGeometry x="300" y="10" width="160" height="50" as="geometry">
            <mxRectangle x="230" y="140" width="160" height="26" as="alternateBounds" />
          </mxGeometry>
        </mxCell>
        <mxCell id="zkfFHV4jXpPFQw0GAbJ--1" value="Guid Id" style="text;align=left;verticalAlign=top;spacingLeft=4;spacingRight=4;overflow=hidden;rotatable=0;points=[[0,0.5],[1,0.5]];portConstraint=eastwest;" parent="zkfFHV4jXpPFQw0GAbJ--0" vertex="1">
          <mxGeometry y="26" width="160" height="24" as="geometry" />
        </mxCell>
        <mxCell id="mwsBojb0anO_jocSqs6z-87" style="edgeStyle=orthogonalEdgeStyle;rounded=0;orthogonalLoop=1;jettySize=auto;html=1;entryX=0.5;entryY=0;entryDx=0;entryDy=0;" edge="1" parent="WIyWlLk6GJQsqaUBKTNV-1" source="mwsBojb0anO_jocSqs6z-0" target="mwsBojb0anO_jocSqs6z-63">
          <mxGeometry relative="1" as="geometry" />
        </mxCell>
        <mxCell id="mwsBojb0anO_jocSqs6z-88" style="edgeStyle=orthogonalEdgeStyle;rounded=0;orthogonalLoop=1;jettySize=auto;html=1;entryX=0.5;entryY=0;entryDx=0;entryDy=0;" edge="1" parent="WIyWlLk6GJQsqaUBKTNV-1" source="mwsBojb0anO_jocSqs6z-0" target="mwsBojb0anO_jocSqs6z-36">
          <mxGeometry relative="1" as="geometry" />
        </mxCell>
        <mxCell id="mwsBojb0anO_jocSqs6z-89" style="edgeStyle=orthogonalEdgeStyle;rounded=0;orthogonalLoop=1;jettySize=auto;html=1;entryX=0.5;entryY=0;entryDx=0;entryDy=0;" edge="1" parent="WIyWlLk6GJQsqaUBKTNV-1" source="mwsBojb0anO_jocSqs6z-0" target="mwsBojb0anO_jocSqs6z-29">
          <mxGeometry relative="1" as="geometry" />
        </mxCell>
        <mxCell id="mwsBojb0anO_jocSqs6z-0" value="(Abstract)Person" style="swimlane;fontStyle=2;align=center;verticalAlign=top;childLayout=stackLayout;horizontal=1;startSize=26;horizontalStack=0;resizeParent=1;resizeLast=0;collapsible=1;marginBottom=0;rounded=0;shadow=0;strokeWidth=1;" vertex="1" parent="WIyWlLk6GJQsqaUBKTNV-1">
          <mxGeometry x="294" y="280" width="120" height="170" as="geometry">
            <mxRectangle x="230" y="140" width="160" height="26" as="alternateBounds" />
          </mxGeometry>
        </mxCell>
        <mxCell id="mwsBojb0anO_jocSqs6z-1" value="FirstName" style="text;align=left;verticalAlign=top;spacingLeft=4;spacingRight=4;overflow=hidden;rotatable=0;points=[[0,0.5],[1,0.5]];portConstraint=eastwest;" vertex="1" parent="mwsBojb0anO_jocSqs6z-0">
          <mxGeometry y="26" width="120" height="24" as="geometry" />
        </mxCell>
        <mxCell id="mwsBojb0anO_jocSqs6z-4" value="LastName" style="text;align=left;verticalAlign=top;spacingLeft=4;spacingRight=4;overflow=hidden;rotatable=0;points=[[0,0.5],[1,0.5]];portConstraint=eastwest;" vertex="1" parent="mwsBojb0anO_jocSqs6z-0">
          <mxGeometry y="50" width="120" height="24" as="geometry" />
        </mxCell>
        <mxCell id="mwsBojb0anO_jocSqs6z-5" value="PhoneNumber" style="text;align=left;verticalAlign=top;spacingLeft=4;spacingRight=4;overflow=hidden;rotatable=0;points=[[0,0.5],[1,0.5]];portConstraint=eastwest;" vertex="1" parent="mwsBojb0anO_jocSqs6z-0">
          <mxGeometry y="74" width="120" height="24" as="geometry" />
        </mxCell>
        <mxCell id="mwsBojb0anO_jocSqs6z-7" value="Address&#xa;" style="text;align=left;verticalAlign=top;spacingLeft=4;spacingRight=4;overflow=hidden;rotatable=0;points=[[0,0.5],[1,0.5]];portConstraint=eastwest;" vertex="1" parent="mwsBojb0anO_jocSqs6z-0">
          <mxGeometry y="98" width="120" height="24" as="geometry" />
        </mxCell>
        <mxCell id="mwsBojb0anO_jocSqs6z-8" value="DateOfBirthday" style="text;align=left;verticalAlign=top;spacingLeft=4;spacingRight=4;overflow=hidden;rotatable=0;points=[[0,0.5],[1,0.5]];portConstraint=eastwest;" vertex="1" parent="mwsBojb0anO_jocSqs6z-0">
          <mxGeometry y="122" width="120" height="24" as="geometry" />
        </mxCell>
        <mxCell id="mwsBojb0anO_jocSqs6z-6" value="DateRegistration" style="text;align=left;verticalAlign=top;spacingLeft=4;spacingRight=4;overflow=hidden;rotatable=0;points=[[0,0.5],[1,0.5]];portConstraint=eastwest;" vertex="1" parent="mwsBojb0anO_jocSqs6z-0">
          <mxGeometry y="146" width="120" height="24" as="geometry" />
        </mxCell>
        <mxCell id="mwsBojb0anO_jocSqs6z-2" value="Hospital" style="swimlane;fontStyle=2;align=center;verticalAlign=top;childLayout=stackLayout;horizontal=1;startSize=26;horizontalStack=0;resizeParent=1;resizeLast=0;collapsible=1;marginBottom=0;rounded=0;shadow=0;strokeWidth=1;fontSize=12;" vertex="1" parent="WIyWlLk6GJQsqaUBKTNV-1">
          <mxGeometry x="10" y="123" width="90" height="98" as="geometry">
            <mxRectangle x="230" y="140" width="160" height="26" as="alternateBounds" />
          </mxGeometry>
        </mxCell>
        <mxCell id="mwsBojb0anO_jocSqs6z-3" value="Name" style="text;align=left;verticalAlign=top;spacingLeft=4;spacingRight=4;overflow=hidden;rotatable=0;points=[[0,0.5],[1,0.5]];portConstraint=eastwest;strokeWidth=1;fontSize=12;" vertex="1" parent="mwsBojb0anO_jocSqs6z-2">
          <mxGeometry y="26" width="90" height="24" as="geometry" />
        </mxCell>
        <mxCell id="mwsBojb0anO_jocSqs6z-9" value="Address" style="text;align=left;verticalAlign=top;spacingLeft=4;spacingRight=4;overflow=hidden;rotatable=0;points=[[0,0.5],[1,0.5]];portConstraint=eastwest;strokeWidth=1;fontSize=12;" vertex="1" parent="mwsBojb0anO_jocSqs6z-2">
          <mxGeometry y="50" width="90" height="24" as="geometry" />
        </mxCell>
        <mxCell id="mwsBojb0anO_jocSqs6z-10" value="List&lt;Branch&gt;" style="text;align=left;verticalAlign=top;spacingLeft=4;spacingRight=4;overflow=hidden;rotatable=0;points=[[0,0.5],[1,0.5]];portConstraint=eastwest;strokeWidth=1;fontSize=12;" vertex="1" parent="mwsBojb0anO_jocSqs6z-2">
          <mxGeometry y="74" width="90" height="24" as="geometry" />
        </mxCell>
        <mxCell id="mwsBojb0anO_jocSqs6z-11" value="Branch" style="swimlane;fontStyle=2;align=center;verticalAlign=top;childLayout=stackLayout;horizontal=1;startSize=26;horizontalStack=0;resizeParent=1;resizeLast=0;collapsible=1;marginBottom=0;rounded=0;shadow=0;strokeWidth=1;fontSize=12;" vertex="1" parent="WIyWlLk6GJQsqaUBKTNV-1">
          <mxGeometry x="160" y="120" width="100" height="122" as="geometry">
            <mxRectangle x="230" y="140" width="160" height="26" as="alternateBounds" />
          </mxGeometry>
        </mxCell>
        <mxCell id="mwsBojb0anO_jocSqs6z-12" value="Name" style="text;align=left;verticalAlign=top;spacingLeft=4;spacingRight=4;overflow=hidden;rotatable=0;points=[[0,0.5],[1,0.5]];portConstraint=eastwest;strokeWidth=1;fontSize=12;" vertex="1" parent="mwsBojb0anO_jocSqs6z-11">
          <mxGeometry y="26" width="100" height="24" as="geometry" />
        </mxCell>
        <mxCell id="mwsBojb0anO_jocSqs6z-13" value="Address" style="text;align=left;verticalAlign=top;spacingLeft=4;spacingRight=4;overflow=hidden;rotatable=0;points=[[0,0.5],[1,0.5]];portConstraint=eastwest;strokeWidth=1;fontSize=12;" vertex="1" parent="mwsBojb0anO_jocSqs6z-11">
          <mxGeometry y="50" width="100" height="24" as="geometry" />
        </mxCell>
        <mxCell id="mwsBojb0anO_jocSqs6z-14" value="HospitalID" style="text;align=left;verticalAlign=top;spacingLeft=4;spacingRight=4;overflow=hidden;rotatable=0;points=[[0,0.5],[1,0.5]];portConstraint=eastwest;strokeWidth=1;fontSize=12;" vertex="1" parent="mwsBojb0anO_jocSqs6z-11">
          <mxGeometry y="74" width="100" height="24" as="geometry" />
        </mxCell>
        <mxCell id="mwsBojb0anO_jocSqs6z-23" value="List&lt;Department&gt;" style="text;align=left;verticalAlign=top;spacingLeft=4;spacingRight=4;overflow=hidden;rotatable=0;points=[[0,0.5],[1,0.5]];portConstraint=eastwest;strokeWidth=1;fontSize=12;" vertex="1" parent="mwsBojb0anO_jocSqs6z-11">
          <mxGeometry y="98" width="100" height="24" as="geometry" />
        </mxCell>
        <mxCell id="mwsBojb0anO_jocSqs6z-15" value="Department" style="swimlane;fontStyle=2;align=center;verticalAlign=top;childLayout=stackLayout;horizontal=1;startSize=26;horizontalStack=0;resizeParent=1;resizeLast=0;collapsible=1;marginBottom=0;rounded=0;shadow=0;strokeWidth=1;fontSize=12;" vertex="1" parent="WIyWlLk6GJQsqaUBKTNV-1">
          <mxGeometry x="324" y="120" width="90" height="122" as="geometry">
            <mxRectangle x="230" y="140" width="160" height="26" as="alternateBounds" />
          </mxGeometry>
        </mxCell>
        <mxCell id="mwsBojb0anO_jocSqs6z-16" value="Name" style="text;align=left;verticalAlign=top;spacingLeft=4;spacingRight=4;overflow=hidden;rotatable=0;points=[[0,0.5],[1,0.5]];portConstraint=eastwest;strokeWidth=1;fontSize=12;" vertex="1" parent="mwsBojb0anO_jocSqs6z-15">
          <mxGeometry y="26" width="90" height="24" as="geometry" />
        </mxCell>
        <mxCell id="mwsBojb0anO_jocSqs6z-17" value="BranchID" style="text;align=left;verticalAlign=top;spacingLeft=4;spacingRight=4;overflow=hidden;rotatable=0;points=[[0,0.5],[1,0.5]];portConstraint=eastwest;strokeWidth=1;fontSize=12;" vertex="1" parent="mwsBojb0anO_jocSqs6z-15">
          <mxGeometry y="50" width="90" height="24" as="geometry" />
        </mxCell>
        <mxCell id="mwsBojb0anO_jocSqs6z-18" value="List&lt;Branch&gt;" style="text;align=left;verticalAlign=top;spacingLeft=4;spacingRight=4;overflow=hidden;rotatable=0;points=[[0,0.5],[1,0.5]];portConstraint=eastwest;strokeWidth=1;fontSize=12;" vertex="1" parent="mwsBojb0anO_jocSqs6z-15">
          <mxGeometry y="74" width="90" height="24" as="geometry" />
        </mxCell>
        <mxCell id="mwsBojb0anO_jocSqs6z-90" value="List&lt;Doctor&gt;" style="text;align=left;verticalAlign=top;spacingLeft=4;spacingRight=4;overflow=hidden;rotatable=0;points=[[0,0.5],[1,0.5]];portConstraint=eastwest;strokeWidth=1;fontSize=12;" vertex="1" parent="mwsBojb0anO_jocSqs6z-15">
          <mxGeometry y="98" width="90" height="24" as="geometry" />
        </mxCell>
        <mxCell id="mwsBojb0anO_jocSqs6z-19" value="Floor" style="swimlane;fontStyle=2;align=center;verticalAlign=top;childLayout=stackLayout;horizontal=1;startSize=26;horizontalStack=0;resizeParent=1;resizeLast=0;collapsible=1;marginBottom=0;rounded=0;shadow=0;strokeWidth=1;fontSize=12;" vertex="1" parent="WIyWlLk6GJQsqaUBKTNV-1">
          <mxGeometry x="490" y="120" width="90" height="122" as="geometry">
            <mxRectangle x="230" y="140" width="160" height="26" as="alternateBounds" />
          </mxGeometry>
        </mxCell>
        <mxCell id="mwsBojb0anO_jocSqs6z-20" value="Name" style="text;align=left;verticalAlign=top;spacingLeft=4;spacingRight=4;overflow=hidden;rotatable=0;points=[[0,0.5],[1,0.5]];portConstraint=eastwest;strokeWidth=1;fontSize=12;" vertex="1" parent="mwsBojb0anO_jocSqs6z-19">
          <mxGeometry y="26" width="90" height="24" as="geometry" />
        </mxCell>
        <mxCell id="mwsBojb0anO_jocSqs6z-21" value="FloorNumber" style="text;align=left;verticalAlign=top;spacingLeft=4;spacingRight=4;overflow=hidden;rotatable=0;points=[[0,0.5],[1,0.5]];portConstraint=eastwest;strokeWidth=1;fontSize=12;" vertex="1" parent="mwsBojb0anO_jocSqs6z-19">
          <mxGeometry y="50" width="90" height="24" as="geometry" />
        </mxCell>
        <mxCell id="mwsBojb0anO_jocSqs6z-59" value="DepartmentID" style="text;align=left;verticalAlign=top;spacingLeft=4;spacingRight=4;overflow=hidden;rotatable=0;points=[[0,0.5],[1,0.5]];portConstraint=eastwest;strokeWidth=1;fontSize=12;" vertex="1" parent="mwsBojb0anO_jocSqs6z-19">
          <mxGeometry y="74" width="90" height="24" as="geometry" />
        </mxCell>
        <mxCell id="mwsBojb0anO_jocSqs6z-22" value="List&lt;Room&gt;" style="text;align=left;verticalAlign=top;spacingLeft=4;spacingRight=4;overflow=hidden;rotatable=0;points=[[0,0.5],[1,0.5]];portConstraint=eastwest;strokeWidth=1;fontSize=12;" vertex="1" parent="mwsBojb0anO_jocSqs6z-19">
          <mxGeometry y="98" width="90" height="24" as="geometry" />
        </mxCell>
        <mxCell id="mwsBojb0anO_jocSqs6z-24" value="Room" style="swimlane;fontStyle=2;align=center;verticalAlign=top;childLayout=stackLayout;horizontal=1;startSize=26;horizontalStack=0;resizeParent=1;resizeLast=0;collapsible=1;marginBottom=0;rounded=0;shadow=0;strokeWidth=1;fontSize=12;" vertex="1" parent="WIyWlLk6GJQsqaUBKTNV-1">
          <mxGeometry x="650" y="120" width="90" height="150" as="geometry">
            <mxRectangle x="230" y="140" width="160" height="26" as="alternateBounds" />
          </mxGeometry>
        </mxCell>
        <mxCell id="mwsBojb0anO_jocSqs6z-25" value="RoomNumber" style="text;align=left;verticalAlign=top;spacingLeft=4;spacingRight=4;overflow=hidden;rotatable=0;points=[[0,0.5],[1,0.5]];portConstraint=eastwest;strokeWidth=1;fontSize=12;" vertex="1" parent="mwsBojb0anO_jocSqs6z-24">
          <mxGeometry y="26" width="90" height="24" as="geometry" />
        </mxCell>
        <mxCell id="mwsBojb0anO_jocSqs6z-26" value="FloorNumber" style="text;align=left;verticalAlign=top;spacingLeft=4;spacingRight=4;overflow=hidden;rotatable=0;points=[[0,0.5],[1,0.5]];portConstraint=eastwest;strokeWidth=1;fontSize=12;" vertex="1" parent="mwsBojb0anO_jocSqs6z-24">
          <mxGeometry y="50" width="90" height="24" as="geometry" />
        </mxCell>
        <mxCell id="mwsBojb0anO_jocSqs6z-28" value="FloorId" style="text;align=left;verticalAlign=top;spacingLeft=4;spacingRight=4;overflow=hidden;rotatable=0;points=[[0,0.5],[1,0.5]];portConstraint=eastwest;strokeWidth=1;fontSize=12;" vertex="1" parent="mwsBojb0anO_jocSqs6z-24">
          <mxGeometry y="74" width="90" height="24" as="geometry" />
        </mxCell>
        <mxCell id="mwsBojb0anO_jocSqs6z-27" value="List&lt;Patient&gt;" style="text;align=left;verticalAlign=top;spacingLeft=4;spacingRight=4;overflow=hidden;rotatable=0;points=[[0,0.5],[1,0.5]];portConstraint=eastwest;strokeWidth=1;fontSize=12;" vertex="1" parent="mwsBojb0anO_jocSqs6z-24">
          <mxGeometry y="98" width="90" height="24" as="geometry" />
        </mxCell>
        <mxCell id="mwsBojb0anO_jocSqs6z-91" value="List&lt;Worker&gt;" style="text;align=left;verticalAlign=top;spacingLeft=4;spacingRight=4;overflow=hidden;rotatable=0;points=[[0,0.5],[1,0.5]];portConstraint=eastwest;strokeWidth=1;fontSize=12;" vertex="1" parent="mwsBojb0anO_jocSqs6z-24">
          <mxGeometry y="122" width="90" height="24" as="geometry" />
        </mxCell>
        <mxCell id="mwsBojb0anO_jocSqs6z-29" value="Doctor" style="swimlane;fontStyle=2;align=center;verticalAlign=top;childLayout=stackLayout;horizontal=1;startSize=26;horizontalStack=0;resizeParent=1;resizeLast=0;collapsible=1;marginBottom=0;rounded=0;shadow=0;strokeWidth=1;" vertex="1" parent="WIyWlLk6GJQsqaUBKTNV-1">
          <mxGeometry x="294" y="504" width="120" height="218" as="geometry">
            <mxRectangle x="230" y="140" width="160" height="26" as="alternateBounds" />
          </mxGeometry>
        </mxCell>
        <mxCell id="mwsBojb0anO_jocSqs6z-30" value="DepartmentId" style="text;align=left;verticalAlign=top;spacingLeft=4;spacingRight=4;overflow=hidden;rotatable=0;points=[[0,0.5],[1,0.5]];portConstraint=eastwest;" vertex="1" parent="mwsBojb0anO_jocSqs6z-29">
          <mxGeometry y="26" width="120" height="24" as="geometry" />
        </mxCell>
        <mxCell id="mwsBojb0anO_jocSqs6z-96" value="FirstName" style="text;align=left;verticalAlign=top;spacingLeft=4;spacingRight=4;overflow=hidden;rotatable=0;points=[[0,0.5],[1,0.5]];portConstraint=eastwest;" vertex="1" parent="mwsBojb0anO_jocSqs6z-29">
          <mxGeometry y="50" width="120" height="24" as="geometry" />
        </mxCell>
        <mxCell id="mwsBojb0anO_jocSqs6z-31" value="LastName" style="text;align=left;verticalAlign=top;spacingLeft=4;spacingRight=4;overflow=hidden;rotatable=0;points=[[0,0.5],[1,0.5]];portConstraint=eastwest;" vertex="1" parent="mwsBojb0anO_jocSqs6z-29">
          <mxGeometry y="74" width="120" height="24" as="geometry" />
        </mxCell>
        <mxCell id="mwsBojb0anO_jocSqs6z-32" value="PhoneNumber" style="text;align=left;verticalAlign=top;spacingLeft=4;spacingRight=4;overflow=hidden;rotatable=0;points=[[0,0.5],[1,0.5]];portConstraint=eastwest;" vertex="1" parent="mwsBojb0anO_jocSqs6z-29">
          <mxGeometry y="98" width="120" height="24" as="geometry" />
        </mxCell>
        <mxCell id="mwsBojb0anO_jocSqs6z-33" value="Address&#xa;" style="text;align=left;verticalAlign=top;spacingLeft=4;spacingRight=4;overflow=hidden;rotatable=0;points=[[0,0.5],[1,0.5]];portConstraint=eastwest;" vertex="1" parent="mwsBojb0anO_jocSqs6z-29">
          <mxGeometry y="122" width="120" height="24" as="geometry" />
        </mxCell>
        <mxCell id="mwsBojb0anO_jocSqs6z-34" value="DateOfBirthday" style="text;align=left;verticalAlign=top;spacingLeft=4;spacingRight=4;overflow=hidden;rotatable=0;points=[[0,0.5],[1,0.5]];portConstraint=eastwest;" vertex="1" parent="mwsBojb0anO_jocSqs6z-29">
          <mxGeometry y="146" width="120" height="24" as="geometry" />
        </mxCell>
        <mxCell id="mwsBojb0anO_jocSqs6z-35" value="DateRegistration" style="text;align=left;verticalAlign=top;spacingLeft=4;spacingRight=4;overflow=hidden;rotatable=0;points=[[0,0.5],[1,0.5]];portConstraint=eastwest;" vertex="1" parent="mwsBojb0anO_jocSqs6z-29">
          <mxGeometry y="170" width="120" height="24" as="geometry" />
        </mxCell>
        <mxCell id="mwsBojb0anO_jocSqs6z-73" value="PositionId&#xa;" style="text;align=left;verticalAlign=top;spacingLeft=4;spacingRight=4;overflow=hidden;rotatable=0;points=[[0,0.5],[1,0.5]];portConstraint=eastwest;" vertex="1" parent="mwsBojb0anO_jocSqs6z-29">
          <mxGeometry y="194" width="120" height="24" as="geometry" />
        </mxCell>
        <mxCell id="mwsBojb0anO_jocSqs6z-36" value="Patient" style="swimlane;fontStyle=2;align=center;verticalAlign=top;childLayout=stackLayout;horizontal=1;startSize=26;horizontalStack=0;resizeParent=1;resizeLast=0;collapsible=1;marginBottom=0;rounded=0;shadow=0;strokeWidth=1;" vertex="1" parent="WIyWlLk6GJQsqaUBKTNV-1">
          <mxGeometry x="690" y="480" width="120" height="242" as="geometry">
            <mxRectangle x="230" y="140" width="160" height="26" as="alternateBounds" />
          </mxGeometry>
        </mxCell>
        <mxCell id="mwsBojb0anO_jocSqs6z-85" value="RoomID" style="text;align=left;verticalAlign=top;spacingLeft=4;spacingRight=4;overflow=hidden;rotatable=0;points=[[0,0.5],[1,0.5]];portConstraint=eastwest;" vertex="1" parent="mwsBojb0anO_jocSqs6z-36">
          <mxGeometry y="26" width="120" height="24" as="geometry" />
        </mxCell>
        <mxCell id="mwsBojb0anO_jocSqs6z-37" value="FirstName" style="text;align=left;verticalAlign=top;spacingLeft=4;spacingRight=4;overflow=hidden;rotatable=0;points=[[0,0.5],[1,0.5]];portConstraint=eastwest;" vertex="1" parent="mwsBojb0anO_jocSqs6z-36">
          <mxGeometry y="50" width="120" height="24" as="geometry" />
        </mxCell>
        <mxCell id="mwsBojb0anO_jocSqs6z-38" value="LastName" style="text;align=left;verticalAlign=top;spacingLeft=4;spacingRight=4;overflow=hidden;rotatable=0;points=[[0,0.5],[1,0.5]];portConstraint=eastwest;" vertex="1" parent="mwsBojb0anO_jocSqs6z-36">
          <mxGeometry y="74" width="120" height="24" as="geometry" />
        </mxCell>
        <mxCell id="mwsBojb0anO_jocSqs6z-39" value="PhoneNumber" style="text;align=left;verticalAlign=top;spacingLeft=4;spacingRight=4;overflow=hidden;rotatable=0;points=[[0,0.5],[1,0.5]];portConstraint=eastwest;" vertex="1" parent="mwsBojb0anO_jocSqs6z-36">
          <mxGeometry y="98" width="120" height="24" as="geometry" />
        </mxCell>
        <mxCell id="mwsBojb0anO_jocSqs6z-40" value="Address&#xa;" style="text;align=left;verticalAlign=top;spacingLeft=4;spacingRight=4;overflow=hidden;rotatable=0;points=[[0,0.5],[1,0.5]];portConstraint=eastwest;" vertex="1" parent="mwsBojb0anO_jocSqs6z-36">
          <mxGeometry y="122" width="120" height="24" as="geometry" />
        </mxCell>
        <mxCell id="mwsBojb0anO_jocSqs6z-41" value="DateOfBirthday" style="text;align=left;verticalAlign=top;spacingLeft=4;spacingRight=4;overflow=hidden;rotatable=0;points=[[0,0.5],[1,0.5]];portConstraint=eastwest;" vertex="1" parent="mwsBojb0anO_jocSqs6z-36">
          <mxGeometry y="146" width="120" height="24" as="geometry" />
        </mxCell>
        <mxCell id="mwsBojb0anO_jocSqs6z-42" value="DateRegistration" style="text;align=left;verticalAlign=top;spacingLeft=4;spacingRight=4;overflow=hidden;rotatable=0;points=[[0,0.5],[1,0.5]];portConstraint=eastwest;" vertex="1" parent="mwsBojb0anO_jocSqs6z-36">
          <mxGeometry y="170" width="120" height="24" as="geometry" />
        </mxCell>
        <mxCell id="mwsBojb0anO_jocSqs6z-75" value="Disease" style="text;align=left;verticalAlign=top;spacingLeft=4;spacingRight=4;overflow=hidden;rotatable=0;points=[[0,0.5],[1,0.5]];portConstraint=eastwest;" vertex="1" parent="mwsBojb0anO_jocSqs6z-36">
          <mxGeometry y="194" width="120" height="24" as="geometry" />
        </mxCell>
        <mxCell id="mwsBojb0anO_jocSqs6z-76" value="State" style="text;align=left;verticalAlign=top;spacingLeft=4;spacingRight=4;overflow=hidden;rotatable=0;points=[[0,0.5],[1,0.5]];portConstraint=eastwest;" vertex="1" parent="mwsBojb0anO_jocSqs6z-36">
          <mxGeometry y="218" width="120" height="24" as="geometry" />
        </mxCell>
        <mxCell id="mwsBojb0anO_jocSqs6z-43" value="Salary" style="swimlane;fontStyle=2;align=center;verticalAlign=top;childLayout=stackLayout;horizontal=1;startSize=26;horizontalStack=0;resizeParent=1;resizeLast=0;collapsible=1;marginBottom=0;rounded=0;shadow=0;strokeWidth=1;" vertex="1" parent="WIyWlLk6GJQsqaUBKTNV-1">
          <mxGeometry x="300" y="806" width="90" height="98" as="geometry">
            <mxRectangle x="230" y="140" width="160" height="26" as="alternateBounds" />
          </mxGeometry>
        </mxCell>
        <mxCell id="mwsBojb0anO_jocSqs6z-44" value="Amount" style="text;align=left;verticalAlign=top;spacingLeft=4;spacingRight=4;overflow=hidden;rotatable=0;points=[[0,0.5],[1,0.5]];portConstraint=eastwest;" vertex="1" parent="mwsBojb0anO_jocSqs6z-43">
          <mxGeometry y="26" width="90" height="24" as="geometry" />
        </mxCell>
        <mxCell id="mwsBojb0anO_jocSqs6z-45" value="Bonus" style="text;align=left;verticalAlign=top;spacingLeft=4;spacingRight=4;overflow=hidden;rotatable=0;points=[[0,0.5],[1,0.5]];portConstraint=eastwest;" vertex="1" parent="mwsBojb0anO_jocSqs6z-43">
          <mxGeometry y="50" width="90" height="24" as="geometry" />
        </mxCell>
        <mxCell id="mwsBojb0anO_jocSqs6z-82" value="WorkerID" style="text;align=left;verticalAlign=top;spacingLeft=4;spacingRight=4;overflow=hidden;rotatable=0;points=[[0,0.5],[1,0.5]];portConstraint=eastwest;" vertex="1" parent="mwsBojb0anO_jocSqs6z-43">
          <mxGeometry y="74" width="90" height="24" as="geometry" />
        </mxCell>
        <mxCell id="mwsBojb0anO_jocSqs6z-47" value="Auth" style="swimlane;fontStyle=2;align=center;verticalAlign=top;childLayout=stackLayout;horizontal=1;startSize=26;horizontalStack=0;resizeParent=1;resizeLast=0;collapsible=1;marginBottom=0;rounded=0;shadow=0;strokeWidth=1;" vertex="1" parent="WIyWlLk6GJQsqaUBKTNV-1">
          <mxGeometry x="20" y="790" width="90" height="102" as="geometry">
            <mxRectangle x="230" y="140" width="160" height="26" as="alternateBounds" />
          </mxGeometry>
        </mxCell>
        <mxCell id="mwsBojb0anO_jocSqs6z-48" value="Login&#xa;" style="text;align=left;verticalAlign=top;spacingLeft=4;spacingRight=4;overflow=hidden;rotatable=0;points=[[0,0.5],[1,0.5]];portConstraint=eastwest;" vertex="1" parent="mwsBojb0anO_jocSqs6z-47">
          <mxGeometry y="26" width="90" height="24" as="geometry" />
        </mxCell>
        <mxCell id="mwsBojb0anO_jocSqs6z-62" value="Password" style="text;align=left;verticalAlign=top;spacingLeft=4;spacingRight=4;overflow=hidden;rotatable=0;points=[[0,0.5],[1,0.5]];portConstraint=eastwest;" vertex="1" parent="mwsBojb0anO_jocSqs6z-47">
          <mxGeometry y="50" width="90" height="24" as="geometry" />
        </mxCell>
        <mxCell id="mwsBojb0anO_jocSqs6z-49" value="RefreshToken" style="text;align=left;verticalAlign=top;spacingLeft=4;spacingRight=4;overflow=hidden;rotatable=0;points=[[0,0.5],[1,0.5]];portConstraint=eastwest;" vertex="1" parent="mwsBojb0anO_jocSqs6z-47">
          <mxGeometry y="74" width="90" height="24" as="geometry" />
        </mxCell>
        <mxCell id="mwsBojb0anO_jocSqs6z-51" value="Position" style="swimlane;fontStyle=2;align=center;verticalAlign=top;childLayout=stackLayout;horizontal=1;startSize=26;horizontalStack=0;resizeParent=1;resizeLast=0;collapsible=1;marginBottom=0;rounded=0;shadow=0;strokeWidth=1;" vertex="1" parent="WIyWlLk6GJQsqaUBKTNV-1">
          <mxGeometry x="470" y="880" width="90" height="98" as="geometry">
            <mxRectangle x="230" y="140" width="160" height="26" as="alternateBounds" />
          </mxGeometry>
        </mxCell>
        <mxCell id="mwsBojb0anO_jocSqs6z-52" value="Name" style="text;align=left;verticalAlign=top;spacingLeft=4;spacingRight=4;overflow=hidden;rotatable=0;points=[[0,0.5],[1,0.5]];portConstraint=eastwest;" vertex="1" parent="mwsBojb0anO_jocSqs6z-51">
          <mxGeometry y="26" width="90" height="24" as="geometry" />
        </mxCell>
        <mxCell id="mwsBojb0anO_jocSqs6z-77" value="List&lt;Worker&gt;" style="text;align=left;verticalAlign=top;spacingLeft=4;spacingRight=4;overflow=hidden;rotatable=0;points=[[0,0.5],[1,0.5]];portConstraint=eastwest;" vertex="1" parent="mwsBojb0anO_jocSqs6z-51">
          <mxGeometry y="50" width="90" height="24" as="geometry" />
        </mxCell>
        <mxCell id="mwsBojb0anO_jocSqs6z-78" value="List&lt;Doctor&gt;" style="text;align=left;verticalAlign=top;spacingLeft=4;spacingRight=4;overflow=hidden;rotatable=0;points=[[0,0.5],[1,0.5]];portConstraint=eastwest;" vertex="1" parent="mwsBojb0anO_jocSqs6z-51">
          <mxGeometry y="74" width="90" height="24" as="geometry" />
        </mxCell>
        <mxCell id="mwsBojb0anO_jocSqs6z-56" style="edgeStyle=orthogonalEdgeStyle;rounded=0;orthogonalLoop=1;jettySize=auto;html=1;entryX=0;entryY=0.5;entryDx=0;entryDy=0;" edge="1" parent="WIyWlLk6GJQsqaUBKTNV-1" source="mwsBojb0anO_jocSqs6z-10" target="mwsBojb0anO_jocSqs6z-14">
          <mxGeometry relative="1" as="geometry" />
        </mxCell>
        <mxCell id="mwsBojb0anO_jocSqs6z-57" style="edgeStyle=orthogonalEdgeStyle;rounded=0;orthogonalLoop=1;jettySize=auto;html=1;entryX=0;entryY=0.5;entryDx=0;entryDy=0;" edge="1" parent="WIyWlLk6GJQsqaUBKTNV-1" source="mwsBojb0anO_jocSqs6z-23" target="mwsBojb0anO_jocSqs6z-17">
          <mxGeometry relative="1" as="geometry" />
        </mxCell>
        <mxCell id="mwsBojb0anO_jocSqs6z-60" style="edgeStyle=orthogonalEdgeStyle;rounded=0;orthogonalLoop=1;jettySize=auto;html=1;entryX=0;entryY=0.5;entryDx=0;entryDy=0;" edge="1" parent="WIyWlLk6GJQsqaUBKTNV-1" source="mwsBojb0anO_jocSqs6z-18" target="mwsBojb0anO_jocSqs6z-59">
          <mxGeometry relative="1" as="geometry" />
        </mxCell>
        <mxCell id="mwsBojb0anO_jocSqs6z-61" style="edgeStyle=orthogonalEdgeStyle;rounded=0;orthogonalLoop=1;jettySize=auto;html=1;entryX=0;entryY=0.5;entryDx=0;entryDy=0;" edge="1" parent="WIyWlLk6GJQsqaUBKTNV-1" source="mwsBojb0anO_jocSqs6z-22" target="mwsBojb0anO_jocSqs6z-28">
          <mxGeometry relative="1" as="geometry" />
        </mxCell>
        <mxCell id="mwsBojb0anO_jocSqs6z-63" value="Worker&#xa;" style="swimlane;fontStyle=2;align=center;verticalAlign=top;childLayout=stackLayout;horizontal=1;startSize=26;horizontalStack=0;resizeParent=1;resizeLast=0;collapsible=1;marginBottom=0;rounded=0;shadow=0;strokeWidth=1;" vertex="1" parent="WIyWlLk6GJQsqaUBKTNV-1">
          <mxGeometry x="10" y="480" width="120" height="194" as="geometry">
            <mxRectangle x="230" y="140" width="160" height="26" as="alternateBounds" />
          </mxGeometry>
        </mxCell>
        <mxCell id="mwsBojb0anO_jocSqs6z-64" value="FirstName" style="text;align=left;verticalAlign=top;spacingLeft=4;spacingRight=4;overflow=hidden;rotatable=0;points=[[0,0.5],[1,0.5]];portConstraint=eastwest;" vertex="1" parent="mwsBojb0anO_jocSqs6z-63">
          <mxGeometry y="26" width="120" height="24" as="geometry" />
        </mxCell>
        <mxCell id="mwsBojb0anO_jocSqs6z-65" value="LastName" style="text;align=left;verticalAlign=top;spacingLeft=4;spacingRight=4;overflow=hidden;rotatable=0;points=[[0,0.5],[1,0.5]];portConstraint=eastwest;" vertex="1" parent="mwsBojb0anO_jocSqs6z-63">
          <mxGeometry y="50" width="120" height="24" as="geometry" />
        </mxCell>
        <mxCell id="mwsBojb0anO_jocSqs6z-66" value="PhoneNumber" style="text;align=left;verticalAlign=top;spacingLeft=4;spacingRight=4;overflow=hidden;rotatable=0;points=[[0,0.5],[1,0.5]];portConstraint=eastwest;" vertex="1" parent="mwsBojb0anO_jocSqs6z-63">
          <mxGeometry y="74" width="120" height="24" as="geometry" />
        </mxCell>
        <mxCell id="mwsBojb0anO_jocSqs6z-67" value="Address&#xa;" style="text;align=left;verticalAlign=top;spacingLeft=4;spacingRight=4;overflow=hidden;rotatable=0;points=[[0,0.5],[1,0.5]];portConstraint=eastwest;" vertex="1" parent="mwsBojb0anO_jocSqs6z-63">
          <mxGeometry y="98" width="120" height="24" as="geometry" />
        </mxCell>
        <mxCell id="mwsBojb0anO_jocSqs6z-68" value="DateOfBirthday" style="text;align=left;verticalAlign=top;spacingLeft=4;spacingRight=4;overflow=hidden;rotatable=0;points=[[0,0.5],[1,0.5]];portConstraint=eastwest;" vertex="1" parent="mwsBojb0anO_jocSqs6z-63">
          <mxGeometry y="122" width="120" height="24" as="geometry" />
        </mxCell>
        <mxCell id="mwsBojb0anO_jocSqs6z-69" value="DateRegistration" style="text;align=left;verticalAlign=top;spacingLeft=4;spacingRight=4;overflow=hidden;rotatable=0;points=[[0,0.5],[1,0.5]];portConstraint=eastwest;" vertex="1" parent="mwsBojb0anO_jocSqs6z-63">
          <mxGeometry y="146" width="120" height="24" as="geometry" />
        </mxCell>
        <mxCell id="mwsBojb0anO_jocSqs6z-71" value="PositionID" style="text;align=left;verticalAlign=top;spacingLeft=4;spacingRight=4;overflow=hidden;rotatable=0;points=[[0,0.5],[1,0.5]];portConstraint=eastwest;" vertex="1" parent="mwsBojb0anO_jocSqs6z-63">
          <mxGeometry y="170" width="120" height="24" as="geometry" />
        </mxCell>
        <mxCell id="mwsBojb0anO_jocSqs6z-86" style="edgeStyle=orthogonalEdgeStyle;rounded=0;orthogonalLoop=1;jettySize=auto;html=1;entryX=1;entryY=0.5;entryDx=0;entryDy=0;" edge="1" parent="WIyWlLk6GJQsqaUBKTNV-1" source="mwsBojb0anO_jocSqs6z-27" target="mwsBojb0anO_jocSqs6z-85">
          <mxGeometry relative="1" as="geometry" />
        </mxCell>
      </root>
    </mxGraphModel>
  </diagram>
</mxfile>
